<svg version="1.1" xmlns="http://www.w3.org/2000/svg" xmlns:xlink="http://www.w3.org/1999/xlink" width="500" height="500"><g data-paper-data="{&quot;description&quot;:&quot;Logo for RON\n============\n\nThis logo was generated by MarkMaker at http://emblemmatic.org/markmaker/ and may be composed of elements designed by others.\n\nThe font is Convergence-Regular designed by Multiple Designers and released under the OFL license via Google Fonts: https://www.google.com/fonts/specimen/Convergence. The font includes this copyright statement: Copyright (c) 2010 by Jos Nicols Silva Schwarzenberg.<info@nsilva.com> and John Vargas Beltran <http://www.johnvargasbeltran.com/>, with Reserved Font Names \\\&quot;Convergence\\\&quot;.\n\nMarkMaker uses semantic data from the Princeton University WordNet database http://wordnet.princeton.edu and font descriptions from Google Fonts https://www.google.com/fonts.&quot;}" fill="none" fill-rule="nonzero" stroke="none" stroke-width="none" stroke-linecap="butt" stroke-linejoin="miter" stroke-miterlimit="10" stroke-dasharray="" stroke-dashoffset="0" font-family="none" font-weight="none" font-size="none" text-anchor="none" style="mix-blend-mode: normal"><path d="M50,354.63868v-209.27736h400v209.27736z" fill="#484342" stroke-width="0"></path><g data-paper-data="{&quot;elementType&quot;:&quot;logo&quot;}" fill="#ffffff" stroke-width="1"><g data-paper-data="{&quot;elementType&quot;:&quot;text&quot;}"><g data-paper-data="{&quot;baseline&quot;:73.2,&quot;elementType&quot;:&quot;row&quot;}"><g data-paper-data="{&quot;baselineProportion&quot;:0.9838709677419355,&quot;fontSize&quot;:100,&quot;baseline&quot;:73.2,&quot;elementType&quot;:&quot;word&quot;}"><path d="M83.33333,319.00518v-136.86026c9.96741,-1.53345 25.238,-2.30017 45.81177,-2.30017c13.80104,0 24.40739,3.92946 31.81905,11.78838c7.41167,7.85892 11.1175,17.92218 11.1175,30.18976c0,8.43397 -2.0446,15.87758 -6.13379,22.33084c-4.0892,6.45326 -9.96741,11.34113 -17.63466,14.6636l12.84263,29.90224c2.30017,5.23928 5.17539,9.29653 8.62565,12.17175c3.45026,2.87522 7.15609,4.31282 11.1175,4.31282l-3.0669,14.95112h-4.60035c-5.87822,0 -11.6606,-1.5654 -17.34713,-4.69619c-5.68654,-3.13079 -9.93547,-7.82698 -12.74679,-14.08856l-17.25129,-38.14453c-1.0223,0.12779 -2.68353,0.19168 -4.98371,0.19168h-15.71785v55.5875h-21.85164M105.18497,246.54974h32.20242c1.78902,-0.63894 3.76973,-2.17239 5.94211,-4.60035c3.83362,-4.34477 5.75043,-10.60635 5.75043,-18.78474c0,-17.37908 -8.17839,-26.06862 -24.53517,-26.06862c-5.62264,0 -12.07591,0.31947 -19.35979,0.95841z" data-paper-data="{&quot;elementType&quot;:&quot;letter&quot;,&quot;baseline&quot;:72.60000000000001,&quot;baselineProportion&quot;:0.9918032786885247,&quot;fontSize&quot;:100}"></path><path d="M234.378,321.30535c-16.22899,0 -29.67861,-5.91017 -40.34886,-17.7305c-10.67024,-11.82033 -16.00537,-29.07162 -16.00537,-51.75388c0,-22.68226 5.43096,-40.54054 16.29289,-53.57485c10.86193,-13.03431 27.15481,-19.55147 48.87867,-19.55147c16.35678,0 29.83835,5.84627 40.4447,17.53882c10.60635,11.69254 15.90953,28.87994 15.90953,51.5622c0,22.68226 -5.43096,40.60443 -16.29289,53.76653c-10.86193,13.1621 -27.15481,19.74315 -48.87867,19.74315M238.01993,302.90397c14.43997,0 24.56712,-4.69619 30.38145,-14.08856c5.81432,-9.39237 8.72149,-23.16146 8.72149,-41.30726c0,-18.14581 -3.29052,-31.08428 -9.87157,-38.81541c-6.58105,-7.73114 -15.74979,-11.5967 -27.50623,-11.5967c-14.69555,0 -24.91854,5.0476 -30.66897,15.1428c-5.23928,9.32848 -7.85892,22.84199 -7.85892,40.54054c0,17.69855 3.25858,30.47729 9.77573,38.33621c6.51716,7.85892 15.52616,11.78838 27.02703,11.78838z" data-paper-data="{&quot;elementType&quot;:&quot;letter&quot;,&quot;baseline&quot;:73.2,&quot;baselineProportion&quot;:0.9838709677419355,&quot;fontSize&quot;:100}"></path><path d="M416.66667,319.00518l-14.95112,1.72513c-2.68353,0 -5.0476,-1.59734 -7.0922,-4.79203l-63.06306,-101.39927l2.87522,104.46617h-21.85164v-138.01035l14.95112,-1.72513c2.81132,0 5.23928,1.59734 7.28388,4.79203l63.44643,101.20759l-3.45026,-104.27449h21.85164z" data-paper-data="{&quot;elementType&quot;:&quot;letter&quot;,&quot;baseline&quot;:72.9,&quot;baselineProportion&quot;:0.9878048780487804,&quot;fontSize&quot;:100}"></path></g></g></g></g></g></svg>