<svg width="40" height="35" viewBox="0 0 40 35" fill="none" xmlns="http://www.w3.org/2000/svg">
<path d="M39.3724 16.2433L30.7108 0.978513C30.3258 0.391405 29.7484 0 28.9785 0H11.6553C10.8854 0 10.3079 0.391405 9.92297 0.978513L1.26138 16.2433C0.876416 16.8304 0.876416 17.6132 1.26138 18.2003L9.92297 33.4651C10.3079 34.0522 10.8854 34.4436 11.6553 34.4436H28.9785C29.7484 34.4436 30.3258 34.0522 30.7108 33.4651L39.3724 18.2003C39.5648 17.6132 39.5648 16.8304 39.3724 16.2433Z" fill="#0872BF"/>
<g clip-path="url(#clip0_6_132)">
<path fill-rule="evenodd" clip-rule="evenodd" d="M19.9583 3C12.2397 3 6 9.64583 6 17.8676C6 24.4398 9.998 30.0029 15.5443 31.9719C16.2377 32.1199 16.4917 31.652 16.4917 31.2584C16.4917 30.9137 16.4689 29.7323 16.4689 28.5013C12.586 29.3876 11.7774 26.7289 11.7774 26.7289C11.1534 25.0059 10.2289 24.563 10.2289 24.563C8.958 23.6522 10.3214 23.6522 10.3214 23.6522C11.7311 23.7507 12.4709 25.1784 12.4709 25.1784C13.7186 27.4428 15.7291 26.803 16.538 26.409C16.6534 25.449 17.0234 24.7844 17.4163 24.4153C14.3194 24.0706 11.0611 22.7907 11.0611 17.0798C11.0611 15.4552 11.6154 14.126 12.4937 13.0923C12.3551 12.7232 11.8697 11.1967 12.6326 9.15374C12.6326 9.15374 13.8111 8.75982 16.4686 10.6799C17.6063 10.3544 18.7796 10.1889 19.9583 10.1875C21.1369 10.1875 22.3383 10.36 23.4477 10.6799C26.1054 8.75982 27.284 9.15374 27.284 9.15374C28.0469 11.1967 27.5611 12.7232 27.4226 13.0923C28.324 14.126 28.8554 15.4552 28.8554 17.0798C28.8554 22.7907 25.5971 24.0458 22.4771 24.4153C22.9857 24.8829 23.4246 25.7689 23.4246 27.1721C23.4246 29.1659 23.4017 30.766 23.4017 31.2581C23.4017 31.652 23.656 32.1199 24.3491 31.9722C29.8954 30.0026 33.8934 24.4398 33.8934 17.8676C33.9163 9.64583 27.6537 3 19.9583 3Z" fill="white"/>
</g>
<defs>
<clipPath id="clip0_6_132">
<rect width="28" height="29" fill="white" transform="translate(6 3)"/>
</clipPath>
</defs>
</svg>
